<svg version="1.1" id="Layer_1" xmlns="http://www.w3.org/2000/svg" xmlns:xlink="http://www.w3.org/1999/xlink" x="0px" y="0px"
	 width="100%" viewBox="0 0 768 768" enable-background="new 0 0 768 768" xml:space="preserve">
<path fill="#000000" opacity="1.000000" stroke="none" 
	d="
M614.148010,433.000000 
	C614.138733,440.332458 614.028259,447.166595 614.142578,453.996979 
	C614.324707,464.880585 621.094727,469.496124 631.540527,465.974457 
	C632.485535,465.655823 633.398743,465.240326 634.319763,464.853271 
	C637.229797,463.630341 638.887268,464.570221 638.972778,467.738556 
	C639.112183,472.901337 639.073914,478.068817 639.199158,483.232178 
	C639.265686,485.972778 637.505432,487.073120 635.335999,487.747070 
	C625.942139,490.665222 616.341431,491.637390 606.762451,489.217865 
	C595.710938,486.426422 589.741699,478.653961 587.822632,467.694611 
	C587.165588,463.942383 586.908813,460.078674 586.887756,456.263580 
	C586.795044,439.432709 586.728394,422.599335 586.944641,405.770630 
	C587.001770,401.324951 585.410706,399.630280 581.140320,400.085632 
	C580.151672,400.191040 579.141968,400.086639 578.142395,400.103149 
	C567.098694,400.285492 567.996765,400.794189 568.059937,389.772095 
	C568.134583,376.756104 568.135620,376.613892 580.938843,376.737488 
	C585.195679,376.778564 587.062195,375.548798 586.817444,371.071259 
	C586.526672,365.753601 586.587280,360.405487 586.744812,355.077942 
	C586.879028,350.537201 584.764893,349.463684 580.818359,350.680878 
	C578.912415,351.268677 576.970947,351.794189 575.145020,352.579193 
	C569.148926,355.157166 563.334167,358.210114 558.439758,362.502686 
	C550.172913,369.752899 542.565552,373.500977 530.747925,368.019226 
	C519.069641,362.602051 505.640137,363.839203 492.902435,366.968353 
	C491.610382,367.285767 490.318359,367.607117 489.015442,367.873444 
	C488.722046,367.933411 488.383026,367.770294 487.974396,367.692688 
	C486.390961,366.304138 486.881287,364.358795 486.876862,362.607513 
	C486.796387,330.611877 486.777008,298.615997 486.652649,266.620575 
	C486.644653,264.563446 487.300690,263.271545 488.782227,261.925629 
	C532.249084,222.436981 582.870972,197.262375 640.375671,185.587677 
	C658.846924,181.837646 677.437927,179.358276 696.213867,177.979904 
	C700.076965,177.696320 701.654907,178.675613 701.458313,182.835938 
	C701.136292,189.653931 701.399963,196.497681 701.296814,203.328751 
	C701.249451,206.460724 702.474854,207.899643 705.719116,207.844818 
	C711.049194,207.754745 716.386719,208.028854 721.714172,207.887100 
	C725.169800,207.795151 726.480286,209.145660 726.403625,212.585098 
	C726.247620,219.580673 726.521545,226.587967 726.278381,233.578613 
	C726.143982,237.441696 727.382385,238.944656 731.376099,238.845184 
	C739.535828,238.641968 747.705383,238.829361 755.870911,238.865845 
	C762.093079,238.893661 762.211304,239.006348 762.210693,245.390808 
	C762.200378,352.378998 762.185059,459.367218 762.174194,566.355408 
	C762.173523,572.521362 762.096497,578.690002 762.255798,584.852173 
	C762.342651,588.214661 761.273926,589.471069 757.658752,589.486023 
	C732.334534,589.590881 707.010559,589.498901 681.684448,589.728027 
	C628.389221,590.210266 575.086731,589.961792 521.787781,589.808228 
	C517.242065,589.795166 516.178711,591.182434 516.245483,595.462341 
	C516.479370,610.457092 516.344910,625.457581 516.350220,640.455933 
	C516.350830,642.099792 516.350281,643.743591 515.755127,645.773560 
	C505.371552,636.755981 497.375092,625.602600 487.128815,615.250061 
	C477.788116,625.603333 468.536987,635.857300 459.437286,645.943420 
	C457.095398,645.087402 457.673431,643.561340 457.670990,642.341858 
	C457.640656,627.010559 457.635071,611.679260 457.653198,596.347900 
	C457.661713,589.163879 457.691071,589.108154 450.495514,589.103699 
	C384.336517,589.062500 318.177521,589.042236 252.018524,589.015625 
	C243.352875,589.012146 234.685104,588.893921 226.022537,589.055237 
	C222.210419,589.126221 220.686890,587.830505 220.715836,583.854614 
	C220.861374,563.857910 220.830429,543.859436 220.765427,523.861938 
	C220.754486,520.496521 221.548019,518.832397 225.459030,518.581055 
	C238.775467,517.725037 252.094574,517.598633 265.420990,517.719360 
	C285.582611,517.902100 305.640533,519.489197 325.584625,522.476196 
	C326.736633,522.648743 327.935608,522.593689 329.056488,522.871582 
	C332.507080,523.727051 333.517334,522.145996 333.491638,518.950500 
	C333.408325,508.578186 333.457153,508.541687 343.464874,508.665436 
	C357.613739,508.840332 361.128021,503.276093 365.648895,489.526184 
	C366.371185,487.329407 365.111877,485.277252 364.339813,483.280182 
	C351.848755,450.970062 339.319000,418.674866 326.833710,386.362518 
	C325.767029,383.601959 324.238220,380.962708 324.098602,377.650940 
	C327.572357,375.483826 331.452911,376.145233 335.163910,376.132385 
	C351.561157,376.075562 351.733521,376.053619 357.240112,391.396179 
	C364.101776,410.514221 370.633636,429.750519 377.338013,448.925262 
	C378.031860,450.909668 378.388824,453.123138 380.773560,454.839569 
	C385.210449,442.762421 389.591492,430.932770 393.902222,419.077545 
	C398.568726,406.243866 403.223511,393.405243 407.755280,380.523712 
	C408.697083,377.846741 409.881348,376.406433 413.038574,376.501038 
	C420.495880,376.724426 427.964417,376.572754 435.323364,376.572754 
	C437.042145,378.788605 435.667328,380.632996 434.994965,382.373291 
	C419.391022,422.762207 403.830353,463.168427 388.023224,503.477936 
	C383.764618,514.337769 377.567871,523.912292 366.036163,529.224487 
	C409.429474,540.895142 449.903198,558.114197 486.807007,585.794800 
	C486.807007,555.473389 486.807007,526.321594 486.807007,496.342438 
	C493.743958,497.920349 499.786987,499.583740 506.007263,500.314758 
	C514.033508,501.258026 514.000610,501.406616 514.004456,509.538788 
	C514.012268,526.203186 514.030151,542.867554 514.069763,559.531860 
	C514.073669,561.167114 513.725098,562.860352 514.607727,564.495728 
	C516.688538,564.789551 517.896790,563.154907 519.347229,562.203308 
	C563.310425,533.359802 611.639648,516.486450 663.614868,509.743256 
	C673.840637,508.416565 684.151978,507.671173 694.445190,506.969940 
	C701.719666,506.474335 702.439453,507.517944 701.817322,514.929016 
	C701.524902,518.411621 701.237610,521.913757 701.294434,525.401367 
	C701.354370,529.076904 699.771240,530.279419 696.189209,530.382507 
	C676.346313,530.953125 656.641541,532.780212 637.302368,537.561584 
	C633.578735,538.482300 629.814575,539.252625 626.916809,543.319763 
	C631.419922,543.059814 635.445251,543.017761 639.424072,542.565735 
	C659.850403,540.245422 680.346436,540.628723 700.835571,540.909607 
	C707.322083,540.998535 713.805237,541.500000 720.284180,541.905457 
	C723.853516,542.128967 725.464355,540.744751 725.409973,537.019226 
	C724.564575,479.032379 724.957336,421.041656 724.939636,363.052124 
	C724.929443,329.722717 724.909180,296.393311 724.891724,263.063904 
	C724.891418,262.397400 724.901123,261.728638 724.852661,261.064819 
	C724.617004,257.832062 725.652649,253.047012 721.894043,252.392700 
	C717.775940,251.675797 716.340637,256.553467 715.031677,259.783295 
	C712.233826,266.686951 712.924561,274.204773 712.151794,281.448181 
	C711.749634,285.218170 712.062439,289.080566 711.199036,292.850708 
	C709.945923,298.322510 709.915710,303.632446 712.281555,308.974091 
	C714.576538,314.155670 712.215454,319.507812 711.893250,324.768219 
	C711.547852,330.409454 710.822449,336.041138 709.983337,341.635071 
	C708.871521,349.047821 707.205566,350.336975 699.802856,351.429321 
	C695.138367,352.117584 691.203918,354.908539 686.956482,356.770172 
	C671.376038,363.599091 655.485229,367.690826 638.418091,363.222168 
	C631.929688,361.523285 625.862549,358.826050 619.926392,355.755524 
	C615.121399,353.270111 614.248474,353.839966 614.172974,359.364105 
	C614.111572,363.862671 614.222412,368.363831 614.145630,372.861938 
	C614.098633,375.613129 615.275146,376.759064 618.043152,376.710693 
	C623.540710,376.614685 629.048523,376.868042 634.538208,376.640564 
	C638.304016,376.484497 639.550598,377.980347 639.369629,381.607025 
	C639.145691,386.095581 639.109741,390.614502 639.361450,395.099640 
	C639.590088,399.174530 637.785217,400.339935 634.016174,400.173401 
	C629.026184,399.952881 624.014343,400.242157 619.022339,400.046021 
	C615.354370,399.901917 613.994080,401.323029 614.066345,405.007843 
	C614.245911,414.168915 614.139343,423.335571 614.148010,433.000000 
M623.639038,301.800018 
	C624.384705,302.170105 625.133179,302.534729 625.875610,302.911133 
	C636.755798,308.427063 647.946045,311.687256 660.461853,309.992493 
	C674.059204,308.151337 685.448364,301.134369 697.502258,295.611267 
	C698.323059,295.235168 699.395874,294.300323 699.457642,293.551727 
	C699.968384,287.355072 700.351868,281.138367 699.648376,274.134430 
	C693.945190,276.663605 689.158752,278.877777 684.301147,280.922638 
	C671.370789,286.365753 658.075623,289.420380 643.908875,287.308624 
	C634.377136,285.887787 625.652832,282.308685 617.141357,278.032135 
	C597.234680,268.030182 578.527466,271.539795 561.221680,283.958954 
	C545.188416,295.464905 531.485107,309.585510 519.010620,324.866821 
	C517.896240,326.231842 516.426758,327.535278 516.940125,329.970154 
	C518.628296,331.076630 520.586365,330.781952 522.544128,330.473267 
	C526.809387,329.800781 530.268066,327.521484 533.588135,324.950134 
	C541.087524,319.141998 547.943176,312.555847 555.818237,307.183716 
	C577.175049,292.614685 599.482178,290.517426 623.639038,301.800018 
M554.828491,346.291962 
	C567.616638,337.546692 581.261658,331.756744 597.248596,332.599274 
	C608.595215,333.197235 618.530396,337.570038 628.345276,342.610504 
	C640.058167,348.625763 652.324829,350.104736 665.199524,347.360016 
	C672.768005,345.746490 679.512878,341.965515 686.733398,339.568329 
	C696.684021,336.264801 701.669373,331.005524 700.268921,319.769867 
	C699.385803,312.684021 700.025574,312.288910 693.584961,315.344849 
	C690.726868,316.700989 687.850769,318.019043 684.990662,319.370972 
	C673.619141,324.746155 661.704773,327.005219 649.099548,326.369537 
	C637.241211,325.771545 626.978088,320.727539 616.553528,315.879150 
	C607.992676,311.897583 599.126221,309.821564 589.471619,310.722504 
	C575.033875,312.069794 563.862671,319.695587 553.358765,328.579102 
	C543.484253,336.930328 533.068726,344.237915 520.882324,348.803528 
	C519.801880,349.208344 518.752747,349.781250 517.809021,350.446259 
	C516.559143,351.327057 515.448853,352.469574 515.767334,354.163910 
	C516.057983,355.710297 517.496765,356.139496 518.780029,356.429016 
	C528.180359,358.549835 537.289734,358.606659 545.557556,352.604980 
	C548.386597,350.551361 551.337463,348.665527 554.828491,346.291962 
M557.225525,248.747223 
	C540.822571,260.380737 527.393982,274.771637 515.703857,292.241882 
	C522.154846,293.733124 526.527588,291.801788 530.366455,288.895599 
	C537.533447,283.469879 544.387024,277.632477 551.471008,272.094269 
	C566.633606,260.240295 583.456665,253.927032 603.044006,256.615295 
	C612.653931,257.934235 621.073242,262.321381 629.700134,266.249451 
	C639.617065,270.764984 649.844360,272.622650 660.813904,270.996704 
	C672.603699,269.249207 682.826721,263.633118 693.541260,259.119873 
	C698.124084,257.189484 699.953491,254.672089 699.884949,249.419556 
	C699.742188,238.471329 699.929810,238.648041 689.910583,242.951172 
	C665.355286,253.497345 641.246460,254.100845 617.349060,240.969131 
	C612.387451,238.242722 606.883118,236.843903 601.155884,236.228577 
	C585.061218,234.499420 570.954773,239.611908 557.225525,248.747223 
z"/>
<path fill="#000000" opacity="1.000000" stroke="none" 
	d="
M10.544314,467.412354 
	C6.404500,463.871918 6.819283,461.194580 10.842712,458.065247 
	C14.631422,455.118439 17.936333,451.508514 21.234316,447.984619 
	C23.973316,445.058014 25.705297,444.660614 28.572773,448.299652 
	C41.083172,464.176361 64.694496,470.689575 83.165260,463.710754 
	C90.447227,460.959442 96.007805,456.537811 96.749146,448.105316 
	C97.450874,440.123383 94.614342,435.133942 87.349510,431.608124 
	C80.865654,428.461334 73.891975,426.806396 66.893242,425.241730 
	C57.635517,423.171997 48.400410,421.038055 39.501125,417.625977 
	C22.788952,411.218414 12.734222,399.461700 12.062896,381.371124 
	C11.379246,362.948456 20.262262,349.471008 36.449249,340.997986 
	C62.504627,327.359314 99.695053,333.570679 120.195786,354.606598 
	C123.174255,357.662811 124.156631,359.899719 120.171700,363.012665 
	C116.652229,365.762054 113.514084,369.085266 110.586052,372.481415 
	C107.786003,375.729095 105.928268,375.807617 102.608795,372.717468 
	C89.767876,360.763733 74.471451,356.859985 57.309772,360.329468 
	C53.149212,361.170563 49.507305,363.119507 46.407883,366.082977 
	C38.058193,374.066406 39.660477,385.741943 50.032909,390.804810 
	C59.385719,395.369995 69.610481,397.240936 79.641647,399.611115 
	C86.787704,401.299622 93.784698,403.391083 100.634010,406.017517 
	C123.219475,414.678070 129.864777,435.887421 124.841248,456.196411 
	C121.693481,468.922119 114.022087,478.529419 102.024788,483.664032 
	C72.456154,496.318756 44.241150,493.703400 18.017506,474.548645 
	C15.353725,472.602936 13.180028,469.986267 10.544314,467.412354 
z"/>
<path fill="#000000" opacity="1.000000" stroke="none" 
	d="
M456.389587,376.531738 
	C461.447388,376.424347 466.135132,376.613953 470.748627,376.115875 
	C475.489929,375.603973 477.157288,377.553772 476.950287,381.987732 
	C476.866089,383.790497 477.094452,385.607880 477.171204,387.220428 
	C478.436707,387.981232 479.056580,387.336121 479.610199,386.752167 
	C499.917358,365.332916 536.382141,371.334595 552.082336,397.357300 
	C565.485657,419.572845 563.945923,460.095398 541.500122,479.482056 
	C526.445496,492.484955 497.259155,495.994812 481.517365,479.956665 
	C480.622009,479.044434 479.766418,477.893585 478.155090,477.947510 
	C476.589355,479.408264 477.223175,481.359528 477.217377,483.092407 
	C477.172089,496.591980 477.069946,510.094299 477.305634,523.590210 
	C477.382538,527.993103 475.903473,529.559998 471.527802,529.287598 
	C466.546997,528.977478 461.532440,529.207947 456.532532,529.206238 
	C449.885071,529.204041 449.741089,529.100525 449.737152,522.568237 
	C449.714966,485.902191 449.708038,449.236145 449.705139,412.570099 
	C449.704346,402.570282 449.962402,392.563507 449.655457,382.573608 
	C449.504639,377.666382 451.212646,375.760254 456.389587,376.531738 
M530.816345,445.217865 
	C534.547302,431.090820 533.592834,417.557770 523.730530,406.171082 
	C516.636047,397.980072 506.971924,395.600433 496.457886,398.376068 
	C486.214539,401.080231 478.997101,407.048981 477.098877,418.122345 
	C475.567627,427.054901 475.754822,436.083557 476.636566,444.977173 
	C477.586365,454.557037 482.607849,461.691315 492.159576,465.130127 
	C507.385895,470.611816 524.714050,463.008270 530.816345,445.217865 
z"/>
<path fill="#000000" opacity="1.000000" stroke="none" 
	d="
M169.778229,452.166870 
	C180.326126,471.307617 206.279007,471.673065 217.614944,455.367371 
	C219.300308,452.943115 220.817154,452.487946 223.274597,454.452454 
	C227.043472,457.465271 230.930771,460.370728 235.002563,462.951385 
	C238.476303,465.153076 238.194443,467.165680 236.065369,470.228516 
	C227.795975,482.124939 216.057526,488.131592 202.154251,490.055389 
	C171.265091,494.329498 144.146774,475.593719 138.617233,444.791504 
	C132.359268,409.931763 149.325119,382.023193 180.636353,375.432861 
	C202.020172,370.932007 221.391327,375.205109 235.602600,393.774475 
	C238.160400,397.116669 238.425110,399.383453 234.507309,401.777222 
	C230.393951,404.290527 226.548187,407.244293 222.607666,410.036865 
	C220.807297,411.312775 219.288330,412.044495 217.590240,409.669434 
	C209.806442,398.782684 199.120132,395.162720 186.455276,398.629059 
	C173.727982,402.112549 167.584198,411.776093 165.653168,424.163147 
	C164.171143,433.670044 164.733429,443.127686 169.778229,452.166870 
z"/>
<path fill="#000000" opacity="1.000000" stroke="none" 
	d="
M220.829773,248.083664 
	C220.830292,239.815048 220.830307,239.827103 228.373047,239.813934 
	C238.529999,239.796204 248.689560,239.882233 258.842529,239.666504 
	C262.890503,239.580505 264.366699,240.915085 264.346527,245.104584 
	C264.205292,274.409515 264.209900,303.715790 264.344849,333.020782 
	C264.364075,337.197388 262.890472,338.524261 258.825958,338.435455 
	C248.840103,338.217346 238.846542,338.369720 228.856262,338.328400 
	C220.835205,338.295227 220.817795,338.266144 220.816803,329.993347 
	C220.813538,302.852295 220.824188,275.711212 220.829773,248.083664 
z"/>
<path fill="#000000" opacity="1.000000" stroke="none" 
	d="
M281.321594,388.053833 
	C289.738861,380.214874 299.078339,375.281708 310.519073,374.902863 
	C314.289673,374.777985 316.089813,376.125946 316.008118,380.045624 
	C315.897156,385.370361 315.930634,390.702759 316.083740,396.026642 
	C316.183441,399.494812 314.833679,400.578827 311.319458,400.479370 
	C302.053558,400.217133 293.212402,402.288696 284.636200,405.877747 
	C280.722931,407.515442 279.164062,409.666748 279.208984,414.066620 
	C279.438446,436.540405 279.209351,459.018799 279.413849,481.493073 
	C279.455170,486.033539 278.162079,487.742096 273.517334,487.454285 
	C267.878235,487.104858 262.199402,487.279510 256.541351,487.397644 
	C253.243317,487.466492 252.204620,486.001099 252.312271,482.842438 
	C252.896347,465.703979 252.574677,448.570343 252.220581,431.425842 
	C251.887482,415.298187 253.170944,399.149445 252.076721,383.018707 
	C251.737305,378.014984 253.684387,376.115234 258.725433,376.584808 
	C262.851379,376.969238 267.067841,376.939453 271.198090,376.573395 
	C275.977875,376.149780 277.384064,378.348206 277.304138,382.662933 
	C277.262238,384.923248 276.812653,387.330444 278.079651,389.453522 
	C279.600555,390.235962 280.157257,388.804138 281.321594,388.053833 
z"/>
<path fill="#000000" opacity="1.000000" stroke="none" 
	d="
M401.643127,208.285263 
	C429.547180,218.843063 453.615814,234.885956 475.788116,254.144180 
	C434.894531,225.327972 389.288574,207.290695 340.863708,194.675278 
	C346.896149,192.568665 381.103516,200.352188 401.643127,208.285263 
z"/>
<path fill="#000000" opacity="1.000000" stroke="none" 
	d="
M380.833710,279.289856 
	C385.834778,271.779633 392.165833,269.995697 398.313416,274.047241 
	C404.165680,277.904144 405.766052,285.282867 402.008942,291.085999 
	C398.808044,296.029999 392.562531,297.905060 387.048126,295.577698 
	C381.289429,293.147156 378.724579,286.739227 380.833710,279.289856 
z"/>
<path fill="#000000" opacity="1.000000" stroke="none" 
	d="
M350.284302,296.280212 
	C344.794128,295.047791 341.010284,292.259003 339.900848,286.993500 
	C338.959045,282.523468 340.042603,278.384125 343.623230,275.224792 
	C347.716095,271.613495 353.333557,271.141174 357.948669,273.940979 
	C362.451965,276.672974 364.693604,282.570984 363.232758,287.843903 
	C361.734375,293.252319 357.534943,296.088013 350.284302,296.280212 
z"/>
<path fill="#000000" opacity="1.000000" stroke="none" 
	d="
M300.582031,234.743637 
	C304.743195,228.813919 309.484558,226.523804 314.641876,228.087234 
	C319.474182,229.552139 322.600281,232.808594 323.321533,237.959183 
	C323.992615,242.751541 322.807220,246.991089 318.616058,249.768494 
	C314.430878,252.541885 309.885803,253.039612 305.471130,250.279800 
	C301.158203,247.583557 299.257294,243.485168 299.567413,238.430130 
	C299.636749,237.300186 300.123962,236.195892 300.582031,234.743637 
z"/>
<path fill="#000000" opacity="1.000000" stroke="none" 
	d="
M310.289917,317.172913 
	C319.210754,318.005493 323.873077,323.030365 323.272186,330.683899 
	C322.767181,337.116272 317.373474,341.614777 310.526520,341.314148 
	C304.831573,341.064117 300.252411,336.629089 299.717804,330.845581 
	C299.049011,323.610779 302.303070,319.262024 310.289917,317.172913 
z"/>
<path fill="#000000" opacity="1.000000" stroke="none" 
	d="
M300.350342,288.994568 
	C298.350525,278.286591 304.771667,270.419189 313.442963,272.365387 
	C319.295593,273.678955 323.145782,278.157288 323.317902,283.851349 
	C323.490082,289.547821 320.074066,294.563843 315.023254,296.031006 
	C309.193207,297.724579 304.389740,295.517242 300.350342,288.994568 
z"/>
</svg>